<svg width="24" height="24" fill="none" xmlns="http://www.w3.org/2000/svg"><path d="M13.714 17.143H12v1.714h1.714v-1.714zm1.714-1.713h-1.714v1.713h1.713V15.43zm.002 6.856V20.57h-1.716v1.716h-8.57V24h13.713v-1.714H15.43zm-.002-15.429h-1.714V8.57h1.713V6.857zm-1.714-1.714H12v1.714h1.714V5.143zm3.429-1.713H15.43v1.713h1.713V3.43zm5.143 3.427V8.57h-3.427V6.857h3.427V3.43h-1.714v1.713h-3.427v13.712h-1.713v1.713h3.427v1.714h1.713v-1.714h1.714v-3.427H24V6.859h-1.714v-.002zm-1.716 12h-1.714v-1.714h1.714v1.714zm1.716-3.427h-3.427v-1.714h3.427v1.714zm0-3.43h-3.427v-1.713h3.427V12zM3.43 17.143H1.714v3.427H3.43v-3.427zm-1.716-3.43V6.857H0v10.286h1.714v-3.429zm3.429 6.857H3.43v1.714h1.713V20.57zm3.427-3.427H6.856v1.714H8.57v-1.714zm-3.427 0h1.714v-3.429H12V12H6.857v-1.714H12V8.57H6.857V6.857H5.143V8.57H3.43v1.716h1.713V12H3.43v1.713h1.713v3.43zm5.143 3.427H12v-1.713H8.57v1.713h1.716zM3.43 5.143V3.43H1.714v3.427H3.43V5.143zm5.14 0H6.856v1.714H8.57V5.143zM5.143 1.714H3.43v1.713h1.713V1.714zm3.427 0h5.144V3.43h1.716V1.714h1.714V3.43h3.427V1.714h-1.714V0H5.144v1.714H8.57zM12 5.143V3.43H8.57v1.713H12z" fill="#000"/></svg>